<svg xmlns="http://www.w3.org/2000/svg" width="585.8308715820312" height="306.9318542480469" viewBox="-371.80242919921875 -102.41454315185547 585.8308715820312 306.9318542480469"><title>Neo4j Graph Visualization</title><desc>Created using Neo4j (http://www.neo4j.com/)</desc><g class="layer relationships"><g class="relationship" transform="translate(-146.59731720235385 58.71281372782855) rotate(351.05797036732963)"><path class="b-outline" fill="#A5ABB6" stroke="none" d="M 25 0.5 L 82.94887965990476 0.5 L 82.94887965990476 -0.5 L 25 -0.5 Z M 116.50747340990476 0.5 L 174.45635306980952 0.5 L 174.45635306980952 3.5 L 181.45635306980952 0 L 174.45635306980952 -3.5 L 174.45635306980952 -0.5 L 116.50747340990476 -0.5 Z"/><text text-anchor="middle" pointer-events="none" font-size="8px" fill="#000000" x="99.72817653490476" y="3" font-family="Helvetica Neue, Helvetica, Arial, sans-serif">COSTS</text></g><g class="relationship" transform="translate(-144.88815887948306 175.5173079226391) rotate(323.63812629080036)"><path class="b-outline" fill="#A5ABB6" stroke="none" d="M 25 0.5 L 105.28933340840223 0.5 L 105.28933340840223 -0.5 L 25 -0.5 Z M 138.84792715840223 0.5 L 219.13726056680446 0.5 L 219.13726056680446 3.5 L 226.13726056680446 0 L 219.13726056680446 -3.5 L 219.13726056680446 -0.5 L 138.84792715840223 -0.5 Z"/><text text-anchor="middle" pointer-events="none" font-size="8px" fill="#000000" x="122.06863028340223" y="3" font-family="Helvetica Neue, Helvetica, Arial, sans-serif">COSTS</text></g><g class="relationship" transform="translate(-147.55352924638748 -67.2919334296732) rotate(384.62360391412165)"><path class="b-outline" fill="#A5ABB6" stroke="none" d="M 25 0.5 L 92.42079697711455 0.5 L 92.42079697711455 -0.5 L 25 -0.5 Z M 125.97939072711455 0.5 L 193.4001877042291 0.5 L 193.4001877042291 3.5 L 200.4001877042291 0 L 193.4001877042291 -3.5 L 193.4001877042291 -0.5 L 125.97939072711455 -0.5 Z"/><text text-anchor="middle" pointer-events="none" font-size="8px" fill="#000000" x="109.20009385211455" y="3" font-family="Helvetica Neue, Helvetica, Arial, sans-serif">COSTS</text></g><g class="relationship" transform="translate(57.34978833424492 26.622256454242724) rotate(359.6331183776831)"><path class="b-outline" fill="#A5ABB6" stroke="none" d="M 25 0.5 L 28.448043463976504 0.5 L 28.448043463976504 -0.5 L 25 -0.5 Z M 92.2331997139765 0.5 L 95.68124317795301 0.5 L 95.68124317795301 3.5 L 102.68124317795301 0 L 95.68124317795301 -3.5 L 95.68124317795301 -0.5 L 92.2331997139765 -0.5 Z"/><text text-anchor="middle" pointer-events="none" font-size="8px" fill="#000000" x="60.340621588976504" y="3" font-family="Helvetica Neue, Helvetica, Arial, sans-serif">IN_CURRENCY</text></g><g class="relationship" transform="translate(-147.55352924638748 -67.2919334296732) rotate(357.85461058688077)"><path class="b-outline" fill="#A5ABB6" stroke="none" d="M 25 0.5 L 65.50034045366894 0.5 L 65.50034045366894 -0.5 L 25 -0.5 Z M 91.05112170366894 0.5 L 131.55146215733788 0.5 L 131.55146215733788 3.5 L 138.55146215733788 0 L 131.55146215733788 -3.5 L 131.55146215733788 -0.5 L 91.05112170366894 -0.5 Z"/><text text-anchor="middle" pointer-events="none" font-size="8px" fill="#000000" x="78.27573107866894" y="3" font-family="Helvetica Neue, Helvetica, Arial, sans-serif">WON</text></g><g class="relationship" transform="translate(-146.59731720235385 58.71281372782855) rotate(320.8823890395644)"><path class="b-outline" fill="#A5ABB6" stroke="none" d="M 25 0.5 L 88.43562385202075 0.5 L 88.43562385202075 -0.5 L 25 -0.5 Z M 113.98640510202075 0.5 L 177.4220289540415 0.5 L 177.4220289540415 3.5 L 184.4220289540415 0 L 177.4220289540415 -3.5 L 177.4220289540415 -0.5 L 113.98640510202075 -0.5 Z"/><text text-anchor="middle" pointer-events="none" font-size="8px" fill="#000000" x="101.21101447702075" y="3" font-family="Helvetica Neue, Helvetica, Arial, sans-serif">WON</text></g><g class="relationship" transform="translate(-342.8024391635306 -13.625292425614568) rotate(403.7017561209642)"><path class="b-outline" fill="#A5ABB6" stroke="none" d="M 25 0.5 L 107.93509662312081 0.5 L 107.93509662312081 -0.5 L 25 -0.5 Z M 158.8257216231208 0.5 L 241.76081824624163 0.5 L 241.76081824624163 3.5 L 248.76081824624163 0 L 241.76081824624163 -3.5 L 241.76081824624163 -0.5 L 158.8257216231208 -0.5 Z"/><text text-anchor="middle" pointer-events="none" font-size="8px" fill="#000000" x="133.3804091231208" y="3" font-family="Helvetica Neue, Helvetica, Arial, sans-serif">AUTHORED</text></g><g class="relationship" transform="translate(-342.8024391635306 -13.625292425614568) rotate(380.238230722675)"><path class="b-outline" fill="#A5ABB6" stroke="none" d="M 25 0.5 L 75.61238865786194 0.5 L 75.61238865786194 -0.5 L 25 -0.5 Z M 126.50301365786194 0.5 L 177.11540231572388 0.5 L 177.11540231572388 3.5 L 184.11540231572388 0 L 177.11540231572388 -3.5 L 177.11540231572388 -0.5 L 126.50301365786194 -0.5 Z"/><text text-anchor="middle" pointer-events="none" font-size="8px" fill="#000000" x="101.05770115786194" y="3" font-family="Helvetica Neue, Helvetica, Arial, sans-serif">AUTHORED</text></g><g class="relationship" transform="translate(-342.8024391635306 -13.625292425614568) rotate(344.63106304833013)"><path class="b-outline" fill="#A5ABB6" stroke="none" d="M 25 0.5 L 72.2997431576606 0.5 L 72.2997431576606 -0.5 L 25 -0.5 Z M 123.1903681576606 0.5 L 170.4901113153212 0.5 L 170.4901113153212 3.5 L 177.4901113153212 0 L 170.4901113153212 -3.5 L 170.4901113153212 -0.5 L 123.1903681576606 -0.5 Z"/><text text-anchor="middle" pointer-events="none" font-size="8px" fill="#000000" x="97.7450556576606" y="3" font-family="Helvetica Neue, Helvetica, Arial, sans-serif">AUTHORED</text></g><g class="relationship" transform="translate(-147.55352924638748 -67.2919334296732) rotate(481.1023027354131)"><path class="b-outline" fill="#A5ABB6" stroke="none" d="M 25 0.5 L 104.16333734274534 0.5 L 104.16333734274534 -0.5 L 25 -0.5 Z M 172.39771234274534 0.5 L 251.56104968549067 0.5 L 251.56104968549067 3.5 L 258.5610496854907 0 L 251.56104968549067 -3.5 L 251.56104968549067 -0.5 L 172.39771234274534 -0.5 Z"/><text text-anchor="middle" pointer-events="none" font-size="8px" fill="#000000" x="138.28052484274534" y="3" transform="rotate(180 138.28052484274534 0)" font-family="Helvetica Neue, Helvetica, Arial, sans-serif">HAS_KEYWORD</text></g><g class="relationship" transform="translate(-146.59731720235385 58.71281372782855) rotate(501.61478839265806)"><path class="b-outline" fill="#A5ABB6" stroke="none" d="M 25 0.5 L 56.427589736289434 0.5 L 56.427589736289434 -0.5 L 25 -0.5 Z M 124.66196473628943 0.5 L 156.08955447257887 0.5 L 156.08955447257887 3.5 L 163.08955447257887 0 L 156.08955447257887 -3.5 L 156.08955447257887 -0.5 L 124.66196473628943 -0.5 Z"/><text text-anchor="middle" pointer-events="none" font-size="8px" fill="#000000" x="90.54477723628943" y="3" transform="rotate(180 90.54477723628943 0)" font-family="Helvetica Neue, Helvetica, Arial, sans-serif">HAS_KEYWORD</text></g><g class="relationship" transform="translate(-144.88815887948306 175.5173079226391) rotate(180.00427761521598)"><path class="b-outline" fill="#A5ABB6" stroke="none" d="M 25 0.5 L 36.954743482073596 0.5 L 36.954743482073596 -0.5 L 25 -0.5 Z M 105.1891184820736 0.5 L 117.14386196414719 0.5 L 117.14386196414719 3.5 L 124.14386196414719 0 L 117.14386196414719 -3.5 L 117.14386196414719 -0.5 L 105.1891184820736 -0.5 Z"/><text text-anchor="middle" pointer-events="none" font-size="8px" fill="#000000" x="71.0719309820736" y="3" transform="rotate(180 71.0719309820736 0)" font-family="Helvetica Neue, Helvetica, Arial, sans-serif">HAS_KEYWORD</text></g><g class="relationship" transform="translate(-144.88815887948306 175.5173079226391) rotate(358.8997826159756)"><path class="b-outline" fill="#A5ABB6" stroke="none" d="M 25 0.5 L 37.942864522883454 0.5 L 37.942864522883454 -0.5 L 25 -0.5 Z M 100.54833327288345 0.5 L 113.49119779576691 0.5 L 113.49119779576691 3.5 L 120.49119779576691 0 L 113.49119779576691 -3.5 L 113.49119779576691 -0.5 L 100.54833327288345 -0.5 Z"/><text text-anchor="middle" pointer-events="none" font-size="8px" fill="#000000" x="69.24559889788345" y="3" font-family="Helvetica Neue, Helvetica, Arial, sans-serif">IN_CATEGORY</text></g><g class="relationship" transform="translate(-146.59731720235385 58.71281372782855) rotate(397.7638606291507)"><path class="b-outline" fill="#A5ABB6" stroke="none" d="M 25 0.5 L 58.28127395308971 0.5 L 58.28127395308971 -0.5 L 25 -0.5 Z M 120.88674270308971 0.5 L 154.16801665617942 0.5 L 154.16801665617942 3.5 L 161.16801665617942 0 L 154.16801665617942 -3.5 L 154.16801665617942 -0.5 L 120.88674270308971 -0.5 Z"/><text text-anchor="middle" pointer-events="none" font-size="8px" fill="#000000" x="89.58400832808971" y="3" font-family="Helvetica Neue, Helvetica, Arial, sans-serif">IN_CATEGORY</text></g><g class="relationship" transform="translate(-147.55352924638748 -67.2919334296732) rotate(418.3184813251666)"><path class="b-outline" fill="#A5ABB6" stroke="none" d="M 25 0.5 L 106.22024633783874 0.5 L 106.22024633783874 -0.5 L 25 -0.5 Z M 168.82571508783874 0.5 L 250.0459614256775 0.5 L 250.0459614256775 3.5 L 257.0459614256775 0 L 250.0459614256775 -3.5 L 250.0459614256775 -0.5 L 168.82571508783874 -0.5 Z"/><text text-anchor="middle" pointer-events="none" font-size="8px" fill="#000000" x="137.52298071283874" y="3" font-family="Helvetica Neue, Helvetica, Arial, sans-serif">IN_CATEGORY</text></g></g><g class="layer nodes"><g class="node" aria-label="graph-node-245" transform="translate(-144.88815887948306,175.5173079226391)"><circle class="b-outline" cx="0" cy="0" r="25" fill="#8DCC93" stroke="#5db665" stroke-width="2px"/><text class="caption" text-anchor="middle" pointer-events="none" x="0" y="5" font-size="10px" fill="#2A2C34" font-family="Helvetica Neue, Helvetica, Arial, sans-serif"> EBook</text></g><g class="node" aria-label="graph-node-238" transform="translate(0.5762160540231775,172.72369713169303)"><circle class="b-outline" cx="0" cy="0" r="25" fill="#DA7194" stroke="#cc3c6c" stroke-width="2px"/><text class="caption" text-anchor="middle" pointer-events="none" x="0" y="5" font-size="10px" fill="#FFFFFF" font-family="Helvetica Neue, Helvetica, Arial, sans-serif"> Category</text></g><g class="node" aria-label="graph-node-240" transform="translate(-294.0320204279747,175.50617307015722)"><circle class="b-outline" cx="0" cy="0" r="25" fill="#ECB5C9" stroke="#da7298" stroke-width="2px"/><text class="caption" text-anchor="middle" pointer-events="none" x="0" y="5" font-size="10px" fill="#2A2C34" font-family="Helvetica Neue, Helvetica, Arial, sans-serif"> Keyword</text></g><g class="node" aria-label="graph-node-242" transform="translate(57.34978833424492,26.622256454242724)"><circle class="b-outline" cx="0" cy="0" r="25" fill="#4C8EDA" stroke="#2870c2" stroke-width="2px"/><text class="caption" text-anchor="middle" pointer-events="none" x="0" y="5" font-size="10px" fill="#FFFFFF" font-family="Helvetica Neue, Helvetica, Arial, sans-serif"> Price</text></g><g class="node" aria-label="graph-node-239" transform="translate(15.883291718683171,-73.41454125923087)"><circle class="b-outline" cx="0" cy="0" r="25" fill="#FFC454" stroke="#d7a013" stroke-width="2px"/><text class="caption" text-anchor="middle" pointer-events="none" x="0" y="5" font-size="10px" fill="#2A2C34" font-family="Helvetica Neue, Helvetica, Arial, sans-serif"> Award</text></g><g class="node" aria-label="graph-node-241" transform="translate(-146.59731720235385,58.71281372782855)"><circle class="b-outline" cx="0" cy="0" r="25" fill="#A5ABB6" stroke="#9AA1AC" stroke-width="2px"/><text class="caption" text-anchor="middle" pointer-events="none" x="0" y="5" font-size="10px" fill="#FFFFFF" font-family="Helvetica Neue, Helvetica, Arial, sans-serif"> Book</text></g><g class="node" aria-label="graph-node-237" transform="translate(-342.8024391635306,-13.625292425614568)"><circle class="b-outline" cx="0" cy="0" r="25" fill="#604A0E" stroke="#423204" stroke-width="2px"/><text class="caption" text-anchor="middle" pointer-events="none" x="0" y="5" font-size="10px" fill="#FFFFFF" font-family="Helvetica Neue, Helvetica, Arial, sans-serif"> Author</text></g><g class="node" aria-label="graph-node-244" transform="translate(-147.55352924638748,-67.2919334296732)"><circle class="b-outline" cx="0" cy="0" r="25" fill="#F79767" stroke="#f36924" stroke-width="2px"/><text class="caption" text-anchor="middle" pointer-events="none" x="0" y="5" font-size="10px" fill="#FFFFFF" font-family="Helvetica Neue, Helvetica, Arial, sans-serif"> Physical…</text></g><g class="node" aria-label="graph-node-243" transform="translate(185.02841391827474,25.804681723285043)"><circle class="b-outline" cx="0" cy="0" r="25" fill="#57C7E3" stroke="#23b3d7" stroke-width="2px"/><text class="caption" text-anchor="middle" pointer-events="none" x="0" y="5" font-size="10px" fill="#2A2C34" font-family="Helvetica Neue, Helvetica, Arial, sans-serif"> Currenc…</text></g></g></svg>